<svg width="25" height="24" viewBox="0 0 25 24" fill="none" xmlns="http://www.w3.org/2000/svg">
<path opacity="0.2" d="M21.4 5.25L12.4 13.5L3.40002 5.25H21.4Z" fill="white"/>
<path d="M21.4 4.5H3.40002C3.20111 4.5 3.01035 4.57902 2.86969 4.71967C2.72904 4.86032 2.65002 5.05109 2.65002 5.25V18C2.65002 18.3978 2.80806 18.7794 3.08936 19.0607C3.37067 19.342 3.7522 19.5 4.15002 19.5H20.65C21.0478 19.5 21.4294 19.342 21.7107 19.0607C21.992 18.7794 22.15 18.3978 22.15 18V5.25C22.15 5.05109 22.071 4.86032 21.9304 4.71967C21.7897 4.57902 21.5989 4.5 21.4 4.5ZM12.4 12.4828L5.32846 6H19.4716L12.4 12.4828ZM9.65409 12L4.15002 17.0447V6.95531L9.65409 12ZM10.7641 13.0172L11.8891 14.0531C12.0275 14.1801 12.2084 14.2506 12.3963 14.2506C12.5841 14.2506 12.7651 14.1801 12.9035 14.0531L14.0285 13.0172L19.466 18H5.32846L10.7641 13.0172ZM15.146 12L20.65 6.95438V17.0456L15.146 12Z" fill="white"/>
</svg>
