<svg width="229" height="70" viewBox="0 0 229 70" fill="none" xmlns="http://www.w3.org/2000/svg">
<path fill-rule="evenodd" clip-rule="evenodd" d="M35.2975 0L37.4343 5.32028C44.1916 5.84547 50.3155 8.63057 55.0524 12.9213L58.102 11.4655L56.4448 14.2671C61.1919 19.1618 64.273 25.6838 64.7726 32.917L69.9999 35.0001L64.7853 36.8892C64.3354 44.0801 61.3348 50.5787 56.6785 55.4894L57.9052 58.3334L54.9201 57.198C50.1779 61.4424 44.0674 64.1872 37.3326 64.6876L34.901 70.0001L32.8428 64.6859C25.9264 64.1667 19.6696 61.2803 14.8787 56.8339L11.8981 58.5346L13.1488 55.091C8.7618 50.2925 5.92479 44.0508 5.43113 37.16L0 34.7989L5.43178 32.8311C5.93412 25.8484 8.84274 19.5328 13.3319 14.7107L12.0963 11.6667L15.1314 12.9344C19.8249 8.67742 25.8825 5.89959 32.5698 5.33601L35.2975 0ZM9.14627 35.0001C9.14627 49.3455 20.7658 60.9748 35.0991 60.9748C49.4325 60.9748 61.052 49.3455 61.052 35.0001C61.052 20.6546 49.4325 9.02532 35.0991 9.02532C20.7658 9.02532 9.14627 20.6546 9.14627 35.0001ZM13.4843 23.1322L23.7959 15.4885L30.7365 20.5173L39.8583 14.0805L58.3003 26.3506L54.5325 25.1437L56.3172 26.9541L46.6005 22.7299L48.7818 26.1495L45.0141 23.9368L44.4192 24.7414L41.4447 22.1265L40.8498 25.1437L36.2889 26.7529L38.6685 23.9368L38.8668 20.5173L39.4617 19.5115L39.2634 18.7069L38.0736 17.2989L26.3738 25.546L27.5637 23.3334L24.9857 24.5403L26.1755 22.1265L23.9942 21.9253L24.1925 21.1207H22.8044L23.0027 19.5115L13.4843 23.1322ZM38.4115 29.2557L38.2721 30.7759V31.5805C38.2721 31.6916 38.1821 31.7817 38.071 31.7817H37.4382C37.3457 31.7817 37.2651 31.7185 37.2429 31.6287L37.12 31.1301C37.0979 31.0402 37.0173 30.9771 36.9247 30.9771H36.3976C36.3299 30.9771 36.2667 31.0111 36.2295 31.0677L35.9614 31.4757C35.9193 31.5398 35.8442 31.5744 35.768 31.5647L34.3813 31.3889C34.3329 31.3828 34.2838 31.3945 34.2433 31.4218L33.7997 31.7218C33.7444 31.7593 33.7112 31.8217 33.7112 31.8885V32.9886V34.1955C33.7112 34.3066 33.6212 34.3966 33.5101 34.3966H32.8039C32.75 34.3966 32.6984 34.4182 32.6606 34.4566L31.9536 35.1738C31.9357 35.1919 31.9214 35.2133 31.9115 35.2367L31.3475 36.5717C31.337 36.5965 31.3316 36.6231 31.3316 36.65V37.8162V39.2935C31.3316 39.3736 31.3791 39.446 31.4526 39.4779L32.6814 40.0121C32.7067 40.0231 32.734 40.0288 32.7616 40.0288H34.2913C34.4069 40.0288 34.4988 40.1261 34.4921 40.2416L34.3076 43.4221C34.3066 43.4396 34.3034 43.4567 34.2979 43.4733L33.3146 46.4656L31.9341 49.2663C31.9291 49.2766 31.9249 49.2872 31.9216 49.2982L31.3316 51.2932L30.7547 53.0487C30.7535 53.0526 30.7523 53.0565 30.7513 53.0605L29.3484 52.9024L28.1586 51.4944V50.0863L29.3484 48.8794L30.3399 48.0748L27.3654 49.684L28.5552 48.0748L27.1671 48.4771V46.6668L26.5722 48.8794L25.779 50.4886L23.3994 50.6898L23.2011 48.6783L26.1756 48.8794L24.5892 48.0748L23.2011 46.6668H25.0771L26.3739 46.2645L25.5807 45.8622L24.5892 45.4599L23.796 44.6553L23.3994 44.253L24.7875 44.4541H26.1756L26.7705 44.0518L25.779 43.8507L25.0771 43.4947L23.9943 43.0461L23.2011 42.6438L23.796 42.4426L25.3824 42.2415L26.3739 41.638H25.9773L25.0771 41.4369L24.1926 41.0346L23.0028 40.4311L22.0113 39.6265H24.3909L25.1841 39.2242L25.779 38.6208L24.3909 38.7968L23.5977 38.3945L22.6062 37.8162L22.2096 36.8104L24.1926 37.615L25.1841 37.2127H25.3824L23.5977 36.6093L22.4079 35.4024L23.796 35.2012L24.5892 34.7989L22.8045 34.1955L24.1926 33.592L22.8045 33.1897L22.0113 32.7874L23.2011 32.5863L24.1926 31.9828L23.2011 31.7817L22.2096 31.1782C22.0774 31.0441 21.7734 30.7759 21.6147 30.7759C21.4561 30.7759 22.2096 30.5077 22.6062 30.3736L23.3994 29.9713L22.6062 29.7702L22.2096 29.3679L23.5977 28.5633L22.4079 28.161L21.813 27.5575L21.2181 26.9541L22.6062 26.7529L23.5977 25.9483L22.4079 25.3449L21.6147 24.9426L21.4164 24.7414L22.8045 24.3391L21.4164 23.7357L20.8215 21.9253L20.0283 23.7357L18.4419 24.3391L19.6317 24.9426L20.0283 25.3449L18.2436 25.7472L18.0453 26.3506L18.6402 26.5518L19.4334 26.7529L20.0283 27.3564L18.2436 27.7587L17.6487 28.161L18.6402 28.3621L19.4334 28.7644L17.847 29.1667L17.2521 29.569L18.4419 29.9713L19.0368 30.3736L18.0453 31.1782H17.4504L16.4589 32.184L18.2436 32.5863L17.4504 34.1955L16.6572 35.0001L18.4419 35.2012L18.0453 36.0058L17.0538 36.4081L16.0623 36.8104L18.4419 37.615L17.4504 38.6208H15.6657L16.2606 37.615L15.2691 36.4081L15.6657 35.8047L15.0708 35.4024L15.864 34.1955L14.4759 33.3909L15.6657 32.7874L14.6742 32.3851L15.6657 31.3794L14.2776 30.9771L15.4674 30.5748L14.8725 30.1725L14.0793 29.7702L13.4844 28.161L12.8895 29.1667L12.6912 29.569L12.2946 29.9713H11.6997L11.1048 30.1725L12.2946 30.7759L12.8895 31.1782L11.5014 31.3794L10.9065 31.5805L12.0963 32.184L12.6912 32.3851L12.4929 33.1897H11.6997H10.9065L12.4929 34.1955L11.5014 34.5978L10.5099 35.4024L11.6997 36.0058L10.7082 36.8104L11.6997 37.615L10.5099 38.0173L10.1133 38.8219H11.5014L11.6997 39.4254L10.3116 40.0288L11.898 40.6323L10.3116 41.4369L11.6997 42.2415L11.3031 43.2472C12.8895 49.0403 17.9131 53.8411 20.2266 55.5173C26.2417 60.0767 41.5241 65.5346 54.5326 50.8909L53 51L52 50.5L54.136 49.684L52 49.5L52.5496 48.0748L53.9377 47.6725L52.5496 47.4714V45.0576L52 46.5L51 47.6725L50 49C49.7728 48.8618 49.5373 48.5958 49.3078 48.3366C49.2035 48.2188 49.1005 48.1024 49 48C48.9132 47.9116 48.8102 47.816 48.6992 47.7129C48.4761 47.5058 48.2207 47.2687 48 47L46.5 46.5L47.5873 47.6725L48.187 49.0806L48.5 50.5L47.5 50L46.6006 49.7795L45.8074 49.684L44.4193 49.4829H43.4278L44.5 50L45.5 50.5L46.4023 51.4944L46.6006 52.0978L46.4023 52.9024L45.4108 53.3047L43.9869 53.3399C43.9999 53.2691 43.9763 53.1912 43.9052 53.1407L42.5211 52.1579C42.468 52.1202 42.4365 52.0591 42.4365 51.9939V45.3088C42.4365 45.2759 42.4284 45.2435 42.413 45.2145L41.0903 42.7227C41.0636 42.6725 41.0594 42.6132 41.0789 42.5597L42.4365 38.8219L43.1062 37.2934C43.1644 37.1605 43.067 37.0116 42.9219 37.0116H40.4563C40.3452 37.0116 40.2551 36.9215 40.2551 36.8104V33.6988C40.2551 33.632 40.222 33.5696 40.1667 33.5322L39.8607 33.3253C39.7565 33.2548 39.7418 33.107 39.8301 33.0174L40.1961 32.6462C40.2339 32.6079 40.2855 32.5863 40.3393 32.5863H40.9232C40.9998 32.5863 41.0698 32.5428 41.1037 32.4741L41.4242 31.8237C41.4379 31.7961 41.445 31.7656 41.445 31.7348V30.1932C41.445 30.1794 41.4435 30.1657 41.4407 30.1522L41.2526 29.2474C41.2418 29.1957 41.2112 29.1503 41.1672 29.121L40.6605 28.7832C40.6419 28.7708 40.6213 28.7615 40.5996 28.7559L39.8834 28.5697C39.8669 28.5654 39.8499 28.5633 39.8328 28.5633H39.2913C39.2478 28.5633 39.2055 28.5774 39.1707 28.6035L38.4912 29.1131C38.4457 29.1472 38.4167 29.199 38.4115 29.2557ZM40.6783 53.4218C40.6568 53.3918 40.6433 53.3555 40.6411 53.316L40.2658 46.6554C40.2598 46.5489 40.1717 46.4656 40.065 46.4656H39.6185C39.5264 46.4656 39.4461 46.5281 39.4235 46.6173L37.7307 53.2951C37.7019 53.4087 37.5823 53.4738 37.4713 53.4362L37.2553 53.3632C37.1572 53.33 37.1003 53.2278 37.1238 53.1269L38.8441 45.7594C38.8585 45.6975 38.8429 45.6324 38.8018 45.5838L37.8511 44.4587C37.7643 44.356 37.6032 44.3657 37.5293 44.478L36.0908 46.6668L33.339 49.8568C33.3229 49.8756 33.3103 49.8971 33.302 49.9203L32.547 52.0266C32.5305 52.0725 32.5313 52.1228 32.5492 52.1682L32.918 53.1036L33.0195 53.3094L37.2805 53.5059L40.6783 53.4218ZM39.8587 38.0173L39.4621 39.6265L39.6604 40.6322L40.2553 41.638L41.4451 38.2184L39.8587 38.0173Z" fill="white"/>
<path d="M91.228 43.812C90.076 43.812 88.996 43.588 87.988 43.14C86.988 42.684 86.112 42.056 85.36 41.256C84.608 40.448 84.02 39.52 83.596 38.472C83.172 37.416 82.96 36.288 82.96 35.088C82.96 33.864 83.18 32.724 83.62 31.668C84.06 30.612 84.664 29.692 85.432 28.908C86.2 28.116 87.08 27.5 88.072 27.06C89.072 26.62 90.132 26.4 91.252 26.4C92.54 26.4 93.756 26.7 94.9 27.3C96.052 27.9 97.028 28.752 97.828 29.856L96.328 30.672C95.688 29.832 94.916 29.188 94.012 28.74C93.116 28.292 92.192 28.068 91.24 28.068C90.336 28.068 89.484 28.252 88.684 28.62C87.892 28.98 87.192 29.484 86.584 30.132C85.976 30.78 85.5 31.528 85.156 32.376C84.812 33.224 84.64 34.136 84.64 35.112C84.64 36.08 84.812 36.988 85.156 37.836C85.5 38.684 85.972 39.432 86.572 40.08C87.18 40.72 87.884 41.224 88.684 41.592C89.484 41.952 90.34 42.132 91.252 42.132C92.004 42.132 92.716 42.004 93.388 41.748C94.068 41.484 94.688 41.116 95.248 40.644C95.808 40.172 96.28 39.62 96.664 38.988C97.056 38.356 97.34 37.668 97.516 36.924H92.98V35.4H99.472C99.448 36.56 99.216 37.648 98.776 38.664C98.336 39.68 97.736 40.576 96.976 41.352C96.224 42.12 95.356 42.724 94.372 43.164C93.396 43.596 92.348 43.812 91.228 43.812ZM106.978 43.812C105.874 43.812 104.866 43.528 103.954 42.96C103.05 42.392 102.326 41.632 101.782 40.68C101.246 39.72 100.978 38.66 100.978 37.5C100.978 36.62 101.134 35.8 101.446 35.04C101.758 34.272 102.186 33.6 102.73 33.024C103.282 32.44 103.922 31.984 104.65 31.656C105.378 31.328 106.154 31.164 106.978 31.164C108.082 31.164 109.086 31.448 109.99 32.016C110.902 32.584 111.626 33.348 112.162 34.308C112.706 35.268 112.978 36.332 112.978 37.5C112.978 38.372 112.822 39.188 112.51 39.948C112.198 40.708 111.766 41.38 111.214 41.964C110.67 42.54 110.034 42.992 109.306 43.32C108.586 43.648 107.81 43.812 106.978 43.812ZM106.978 42.132C107.794 42.132 108.526 41.92 109.174 41.496C109.83 41.064 110.346 40.496 110.722 39.792C111.106 39.088 111.298 38.324 111.298 37.5C111.298 36.66 111.106 35.888 110.722 35.184C110.338 34.472 109.818 33.904 109.162 33.48C108.514 33.056 107.786 32.844 106.978 32.844C106.162 32.844 105.426 33.06 104.77 33.492C104.122 33.916 103.606 34.48 103.222 35.184C102.846 35.888 102.658 36.66 102.658 37.5C102.658 38.364 102.854 39.148 103.246 39.852C103.638 40.548 104.162 41.104 104.818 41.52C105.474 41.928 106.194 42.132 106.978 42.132ZM123.461 40.488L124.961 41.304C124.417 42.064 123.725 42.672 122.885 43.128C122.053 43.584 121.149 43.812 120.173 43.812C119.069 43.812 118.061 43.528 117.149 42.96C116.245 42.392 115.521 41.632 114.977 40.68C114.441 39.72 114.173 38.66 114.173 37.5C114.173 36.62 114.329 35.8 114.641 35.04C114.953 34.272 115.381 33.6 115.925 33.024C116.477 32.44 117.117 31.984 117.845 31.656C118.573 31.328 119.349 31.164 120.173 31.164C121.149 31.164 122.053 31.392 122.885 31.848C123.725 32.304 124.417 32.916 124.961 33.684L123.461 34.488C123.045 33.96 122.545 33.556 121.961 33.276C121.377 32.988 120.781 32.844 120.173 32.844C119.365 32.844 118.633 33.06 117.977 33.492C117.321 33.916 116.801 34.48 116.417 35.184C116.041 35.888 115.853 36.66 115.853 37.5C115.853 38.34 116.045 39.112 116.429 39.816C116.821 40.52 117.345 41.084 118.001 41.508C118.657 41.924 119.381 42.132 120.173 42.132C120.829 42.132 121.445 41.98 122.021 41.676C122.597 41.372 123.077 40.976 123.461 40.488ZM132.243 43.812C131.139 43.812 130.131 43.528 129.219 42.96C128.315 42.392 127.591 41.632 127.047 40.68C126.511 39.72 126.243 38.66 126.243 37.5C126.243 36.62 126.399 35.8 126.711 35.04C127.023 34.272 127.451 33.6 127.995 33.024C128.547 32.44 129.187 31.984 129.915 31.656C130.643 31.328 131.419 31.164 132.243 31.164C133.131 31.164 133.947 31.34 134.691 31.692C135.443 32.044 136.087 32.536 136.623 33.168C137.167 33.8 137.575 34.54 137.847 35.388C138.127 36.236 138.243 37.152 138.195 38.136H128.019C128.115 38.896 128.355 39.576 128.739 40.176C129.131 40.776 129.627 41.252 130.227 41.604C130.835 41.948 131.507 42.124 132.243 42.132C133.043 42.132 133.763 41.924 134.403 41.508C135.051 41.092 135.571 40.52 135.963 39.792L137.667 40.188C137.187 41.252 136.463 42.124 135.495 42.804C134.527 43.476 133.443 43.812 132.243 43.812ZM127.971 36.78H136.503C136.447 36.036 136.219 35.356 135.819 34.74C135.427 34.116 134.919 33.62 134.295 33.252C133.671 32.876 132.987 32.688 132.243 32.688C131.499 32.688 130.819 32.872 130.203 33.24C129.587 33.6 129.083 34.092 128.691 34.716C128.299 35.332 128.059 36.02 127.971 36.78ZM150.717 36.072V43.5H149.037V36.408C149.037 35.752 148.877 35.156 148.557 34.62C148.237 34.084 147.809 33.656 147.273 33.336C146.737 33.016 146.141 32.856 145.485 32.856C144.837 32.856 144.241 33.016 143.697 33.336C143.161 33.656 142.733 34.084 142.413 34.62C142.093 35.156 141.933 35.752 141.933 36.408V43.5H140.253V31.5H141.933V33.156C142.357 32.548 142.909 32.064 143.589 31.704C144.269 31.344 145.009 31.164 145.809 31.164C146.713 31.164 147.537 31.384 148.281 31.824C149.025 32.264 149.617 32.856 150.057 33.6C150.497 34.344 150.717 35.168 150.717 36.072ZM159.252 33.18H156.384L156.372 43.5H154.692L154.704 33.18H152.532V31.5H154.704L154.692 27.732H156.372L156.384 31.5H159.252V33.18ZM161.393 43.5V31.5H163.073V33.156C163.497 32.548 164.049 32.064 164.729 31.704C165.409 31.344 166.149 31.164 166.949 31.164C167.413 31.164 167.861 31.224 168.293 31.344L167.609 33.012C167.273 32.908 166.945 32.856 166.625 32.856C165.977 32.856 165.381 33.016 164.837 33.336C164.301 33.656 163.873 34.084 163.553 34.62C163.233 35.156 163.073 35.752 163.073 36.408V43.5H161.393ZM179.038 31.5H180.718V43.5H179.038L178.978 41.268C178.586 42.028 178.038 42.644 177.334 43.116C176.63 43.58 175.79 43.812 174.814 43.812C173.934 43.812 173.11 43.648 172.342 43.32C171.574 42.984 170.898 42.524 170.314 41.94C169.73 41.356 169.274 40.68 168.946 39.912C168.618 39.144 168.454 38.32 168.454 37.44C168.454 36.576 168.614 35.764 168.934 35.004C169.262 34.244 169.71 33.576 170.278 33C170.854 32.424 171.518 31.976 172.27 31.656C173.03 31.328 173.842 31.164 174.706 31.164C175.706 31.164 176.578 31.404 177.322 31.884C178.066 32.356 178.658 32.976 179.098 33.744L179.038 31.5ZM174.778 42.18C175.634 42.18 176.37 41.972 176.986 41.556C177.602 41.132 178.074 40.564 178.402 39.852C178.738 39.14 178.906 38.356 178.906 37.5C178.906 36.62 178.738 35.828 178.402 35.124C178.066 34.412 177.59 33.848 176.974 33.432C176.358 33.016 175.626 32.808 174.778 32.808C173.93 32.808 173.154 33.02 172.45 33.444C171.754 33.86 171.198 34.424 170.782 35.136C170.374 35.848 170.17 36.636 170.17 37.5C170.17 38.372 170.382 39.164 170.806 39.876C171.23 40.58 171.79 41.14 172.486 41.556C173.19 41.972 173.954 42.18 174.778 42.18ZM183.284 43.5V25.5H184.964V43.5H183.284ZM197.624 31.5H199.304V43.5H197.624L197.564 41.268C197.172 42.028 196.624 42.644 195.92 43.116C195.216 43.58 194.376 43.812 193.4 43.812C192.52 43.812 191.696 43.648 190.928 43.32C190.16 42.984 189.484 42.524 188.9 41.94C188.316 41.356 187.86 40.68 187.532 39.912C187.204 39.144 187.04 38.32 187.04 37.44C187.04 36.576 187.2 35.764 187.52 35.004C187.848 34.244 188.296 33.576 188.864 33C189.44 32.424 190.104 31.976 190.856 31.656C191.616 31.328 192.428 31.164 193.292 31.164C194.292 31.164 195.164 31.404 195.908 31.884C196.652 32.356 197.244 32.976 197.684 33.744L197.624 31.5ZM193.364 42.18C194.22 42.18 194.956 41.972 195.572 41.556C196.188 41.132 196.66 40.564 196.988 39.852C197.324 39.14 197.492 38.356 197.492 37.5C197.492 36.62 197.324 35.828 196.988 35.124C196.652 34.412 196.176 33.848 195.56 33.432C194.944 33.016 194.212 32.808 193.364 32.808C192.516 32.808 191.74 33.02 191.036 33.444C190.34 33.86 189.784 34.424 189.368 35.136C188.96 35.848 188.756 36.636 188.756 37.5C188.756 38.372 188.968 39.164 189.392 39.876C189.816 40.58 190.376 41.14 191.072 41.556C191.776 41.972 192.54 42.18 193.364 42.18ZM205.414 43.728C204.758 43.712 204.118 43.592 203.494 43.368C202.87 43.144 202.326 42.84 201.862 42.456C201.398 42.072 201.066 41.636 200.866 41.148L202.318 40.524C202.446 40.836 202.682 41.124 203.026 41.388C203.378 41.644 203.778 41.852 204.226 42.012C204.674 42.164 205.118 42.24 205.558 42.24C206.046 42.24 206.502 42.16 206.926 42C207.35 41.84 207.694 41.612 207.958 41.316C208.23 41.012 208.366 40.656 208.366 40.248C208.366 39.808 208.222 39.464 207.934 39.216C207.646 38.96 207.282 38.76 206.842 38.616C206.402 38.464 205.95 38.32 205.486 38.184C204.638 37.952 203.89 37.696 203.242 37.416C202.594 37.136 202.086 36.78 201.718 36.348C201.358 35.908 201.178 35.344 201.178 34.656C201.178 33.928 201.382 33.3 201.79 32.772C202.206 32.236 202.746 31.824 203.41 31.536C204.082 31.24 204.798 31.092 205.558 31.092C206.534 31.092 207.422 31.304 208.222 31.728C209.03 32.152 209.614 32.716 209.974 33.42L208.618 34.224C208.474 33.896 208.246 33.612 207.934 33.372C207.622 33.132 207.266 32.944 206.866 32.808C206.474 32.672 206.074 32.6 205.666 32.592C205.154 32.584 204.678 32.66 204.238 32.82C203.798 32.972 203.442 33.2 203.17 33.504C202.906 33.808 202.774 34.18 202.774 34.62C202.774 35.06 202.906 35.396 203.17 35.628C203.434 35.852 203.79 36.036 204.238 36.18C204.694 36.316 205.206 36.476 205.774 36.66C206.502 36.892 207.186 37.156 207.826 37.452C208.466 37.748 208.982 38.116 209.374 38.556C209.766 38.996 209.958 39.552 209.95 40.224C209.95 40.944 209.734 41.572 209.302 42.108C208.87 42.644 208.31 43.056 207.622 43.344C206.934 43.624 206.198 43.752 205.414 43.728ZM211.901 31.5H213.581V43.5H211.901V31.5ZM212.753 29.4C212.481 29.4 212.249 29.312 212.057 29.136C211.873 28.952 211.781 28.724 211.781 28.452C211.781 28.18 211.873 27.956 212.057 27.78C212.249 27.596 212.481 27.504 212.753 27.504C213.017 27.504 213.241 27.596 213.425 27.78C213.617 27.956 213.713 28.18 213.713 28.452C213.713 28.724 213.621 28.952 213.437 29.136C213.253 29.312 213.025 29.4 212.753 29.4ZM226.218 31.5H227.898V43.5H226.218L226.158 41.268C225.766 42.028 225.218 42.644 224.514 43.116C223.81 43.58 222.97 43.812 221.994 43.812C221.114 43.812 220.29 43.648 219.522 43.32C218.754 42.984 218.078 42.524 217.494 41.94C216.91 41.356 216.454 40.68 216.126 39.912C215.798 39.144 215.634 38.32 215.634 37.44C215.634 36.576 215.794 35.764 216.114 35.004C216.442 34.244 216.89 33.576 217.458 33C218.034 32.424 218.698 31.976 219.45 31.656C220.21 31.328 221.022 31.164 221.886 31.164C222.886 31.164 223.758 31.404 224.502 31.884C225.246 32.356 225.838 32.976 226.278 33.744L226.218 31.5ZM221.958 42.18C222.814 42.18 223.55 41.972 224.166 41.556C224.782 41.132 225.254 40.564 225.582 39.852C225.918 39.14 226.086 38.356 226.086 37.5C226.086 36.62 225.918 35.828 225.582 35.124C225.246 34.412 224.77 33.848 224.154 33.432C223.538 33.016 222.806 32.808 221.958 32.808C221.11 32.808 220.334 33.02 219.63 33.444C218.934 33.86 218.378 34.424 217.962 35.136C217.554 35.848 217.35 36.636 217.35 37.5C217.35 38.372 217.562 39.164 217.986 39.876C218.41 40.58 218.97 41.14 219.666 41.556C220.37 41.972 221.134 42.18 221.958 42.18Z" fill="white"/>
</svg>
