<svg width="25" height="24" viewBox="0 0 25 24" fill="none" xmlns="http://www.w3.org/2000/svg">
<path opacity="0.2" d="M21.3944 16.3201C21.2487 17.4086 20.7127 18.4071 19.886 19.13C19.0593 19.8529 17.9982 20.2509 16.9 20.2501C13.5185 20.2501 10.2755 18.9068 7.88441 16.5157C5.49333 14.1246 4.15003 10.8816 4.15003 7.5001C4.14919 6.40192 4.54722 5.3408 5.27011 4.5141C5.99301 3.6874 6.99154 3.15138 8.08003 3.00573C8.24093 2.98661 8.4037 3.02012 8.54397 3.10124C8.68424 3.18236 8.79447 3.30673 8.85815 3.45573L10.8391 7.88073C10.8878 7.99438 10.9076 8.1183 10.8968 8.24146C10.886 8.36463 10.8449 8.48321 10.7772 8.58666L8.77378 10.9689C8.70271 11.0761 8.66069 11.1999 8.65181 11.3283C8.64294 11.4566 8.66752 11.585 8.72315 11.701C9.49846 13.2882 11.1391 14.9092 12.731 15.677C12.8476 15.7324 12.9766 15.7564 13.1053 15.7467C13.2341 15.737 13.358 15.6939 13.465 15.6217L15.8088 13.6248C15.9126 13.5557 16.0321 13.5136 16.1564 13.5023C16.2806 13.491 16.4057 13.5108 16.5203 13.5601L20.9416 15.541C21.0913 15.6043 21.2164 15.7145 21.298 15.855C21.3797 15.9955 21.4135 16.1587 21.3944 16.3201Z" fill="white"/>
<path d="M21.2472 14.8557L16.8307 12.8766L16.8185 12.871C16.5892 12.7729 16.3391 12.7336 16.0908 12.7565C15.8424 12.7794 15.6037 12.8639 15.3963 13.0022C15.3719 13.0184 15.3484 13.0359 15.326 13.0547L13.0441 15.0001C11.5985 14.2979 10.106 12.8166 9.40378 11.3897L11.3519 9.07318C11.3707 9.04974 11.3885 9.0263 11.4053 9.00099C11.5407 8.79409 11.6229 8.55692 11.6445 8.31059C11.6661 8.06427 11.6264 7.81642 11.5291 7.58912V7.57787L9.54441 3.1538C9.41573 2.85687 9.19446 2.60951 8.91365 2.44865C8.63283 2.2878 8.30752 2.22208 7.98628 2.2613C6.71594 2.42847 5.54989 3.05234 4.70591 4.01639C3.86193 4.98045 3.39774 6.21876 3.40003 7.50005C3.40003 14.9438 9.45628 21.0001 16.9 21.0001C18.1813 21.0023 19.4196 20.5382 20.3837 19.6942C21.3477 18.8502 21.9716 17.6841 22.1388 16.4138C22.1781 16.0927 22.1125 15.7674 21.9518 15.4866C21.7911 15.2058 21.544 14.9845 21.2472 14.8557ZM16.9 19.5001C13.7185 19.4966 10.6683 18.2312 8.41859 15.9815C6.1689 13.7318 4.90351 10.6816 4.90003 7.50005C4.89651 6.58458 5.22633 5.69911 5.82791 5.00903C6.42949 4.31895 7.26169 3.87143 8.1691 3.75005C8.16873 3.7538 8.16873 3.75756 8.1691 3.7613L10.1378 8.16755L8.20003 10.4869C8.18036 10.5096 8.1625 10.5337 8.1466 10.5591C8.00552 10.7756 7.92275 11.0249 7.90633 11.2827C7.8899 11.5406 7.94037 11.7984 8.05285 12.031C8.90222 13.7682 10.6525 15.5054 12.4085 16.3538C12.6428 16.4652 12.9021 16.5139 13.1609 16.4952C13.4197 16.4765 13.6692 16.3909 13.885 16.2469C13.9091 16.2307 13.9323 16.2132 13.9544 16.1944L16.2335 14.2501L20.6397 16.2235C20.6397 16.2235 20.6472 16.2235 20.65 16.2235C20.5301 17.1322 20.0833 17.9661 19.3931 18.5691C18.7029 19.1722 17.8166 19.5031 16.9 19.5001Z" fill="white"/>
</svg>
