<svg width="36" height="36" viewBox="0 0 36 36" fill="none" xmlns="http://www.w3.org/2000/svg">
<circle cx="18" cy="18" r="18" fill="white"/>
<path opacity="0.2" d="M24.75 16.5H11.25L18 9.75L24.75 16.5Z" fill="#1CAC78"/>
<path d="M25.2806 15.9695L18.5306 9.21948C18.461 9.14974 18.3782 9.09443 18.2872 9.05668C18.1961 9.01894 18.0985 8.99951 18 8.99951C17.9014 8.99951 17.8038 9.01894 17.7128 9.05668C17.6217 9.09443 17.539 9.14974 17.4694 9.21948L10.7194 15.9695C10.6143 16.0744 10.5428 16.2081 10.5138 16.3536C10.4848 16.4992 10.4997 16.6501 10.5565 16.7872C10.6133 16.9243 10.7095 17.0415 10.833 17.1239C10.9564 17.2063 11.1016 17.2502 11.25 17.2501H17.25V26.2501C17.25 26.449 17.329 26.6398 17.4697 26.7804C17.6103 26.9211 17.8011 27.0001 18 27.0001C18.1989 27.0001 18.3897 26.9211 18.5303 26.7804C18.671 26.6398 18.75 26.449 18.75 26.2501V17.2501H24.75C24.8984 17.2502 25.0435 17.2063 25.167 17.1239C25.2904 17.0415 25.3866 16.9243 25.4434 16.7872C25.5003 16.6501 25.5151 16.4992 25.4861 16.3536C25.4571 16.2081 25.3856 16.0744 25.2806 15.9695ZM13.0603 15.7501L18 10.8104L22.9397 15.7501H13.0603Z" fill="#1CAC78"/>
</svg>
