<svg width="17" height="16" viewBox="0 0 17 16" fill="none" xmlns="http://www.w3.org/2000/svg">
<path opacity="0.2" d="M13.5 6.00012L8.5 11.0001L3.5 6.00012H13.5Z" fill="#4A4C4B"/>
<path d="M13.9619 5.80887C13.9241 5.7175 13.86 5.6394 13.7778 5.58444C13.6956 5.52949 13.5989 5.50014 13.5 5.50012H3.50003C3.40108 5.50004 3.30433 5.52933 3.22204 5.58426C3.13974 5.6392 3.07559 5.71732 3.03772 5.80873C2.99984 5.90014 2.98994 6.00073 3.00926 6.09778C3.02859 6.19482 3.07627 6.28394 3.14628 6.35387L8.14628 11.3539C8.19271 11.4004 8.24786 11.4372 8.30856 11.4624C8.36926 11.4876 8.43432 11.5005 8.50003 11.5005C8.56573 11.5005 8.6308 11.4876 8.6915 11.4624C8.7522 11.4372 8.80734 11.4004 8.85378 11.3539L13.8538 6.35387C13.9237 6.28391 13.9713 6.19478 13.9905 6.09777C14.0098 6.00076 13.9998 5.90022 13.9619 5.80887ZM8.50003 10.2932L4.7069 6.50012H12.2932L8.50003 10.2932Z" fill="#4A4C4B"/>
</svg>
