<svg width="229" height="70" viewBox="0 0 229 70" fill="none" xmlns="http://www.w3.org/2000/svg">
<path fill-rule="evenodd" clip-rule="evenodd" d="M35.2975 0L37.4343 5.32028C44.1916 5.84547 50.3155 8.63057 55.0524 12.9213L58.102 11.4655L56.4448 14.2671C61.1919 19.1618 64.273 25.6838 64.7726 32.917L69.9999 35.0001L64.7853 36.8892C64.3354 44.0801 61.3348 50.5787 56.6785 55.4894L57.9052 58.3334L54.9201 57.198C50.1779 61.4424 44.0674 64.1872 37.3326 64.6876L34.901 70.0001L32.8428 64.6859C25.9264 64.1667 19.6696 61.2803 14.8787 56.8339L11.8981 58.5346L13.1488 55.091C8.7618 50.2925 5.92479 44.0508 5.43113 37.16L0 34.7989L5.43178 32.8311C5.93412 25.8484 8.84274 19.5328 13.3319 14.7107L12.0963 11.6667L15.1314 12.9344C19.8249 8.67742 25.8825 5.89959 32.5698 5.33601L35.2975 0ZM9.14627 35.0001C9.14627 49.3455 20.7658 60.9748 35.0991 60.9748C49.4325 60.9748 61.052 49.3455 61.052 35.0001C61.052 20.6546 49.4325 9.02532 35.0991 9.02532C20.7658 9.02532 9.14627 20.6546 9.14627 35.0001ZM13.4843 23.1322L23.7959 15.4885L30.7365 20.5173L39.8583 14.0805L58.3003 26.3506L54.5325 25.1437L56.3172 26.9541L46.6005 22.7299L48.7818 26.1495L45.0141 23.9368L44.4192 24.7414L41.4447 22.1265L40.8498 25.1437L36.2889 26.7529L38.6685 23.9368L38.8668 20.5173L39.4617 19.5115L39.2634 18.7069L38.0736 17.2989L26.3738 25.546L27.5637 23.3334L24.9857 24.5403L26.1755 22.1265L23.9942 21.9253L24.1925 21.1207H22.8044L23.0027 19.5115L13.4843 23.1322ZM38.4115 29.2557L38.2721 30.7759V31.5805C38.2721 31.6916 38.1821 31.7817 38.071 31.7817H37.4382C37.3457 31.7817 37.2651 31.7185 37.2429 31.6287L37.12 31.1301C37.0979 31.0402 37.0173 30.9771 36.9247 30.9771H36.3976C36.3299 30.9771 36.2667 31.0111 36.2295 31.0677L35.9614 31.4757C35.9193 31.5398 35.8442 31.5744 35.768 31.5647L34.3813 31.3889C34.3329 31.3828 34.2838 31.3945 34.2433 31.4218L33.7997 31.7218C33.7444 31.7593 33.7112 31.8217 33.7112 31.8885V32.9886V34.1955C33.7112 34.3066 33.6212 34.3966 33.5101 34.3966H32.8039C32.75 34.3966 32.6984 34.4182 32.6606 34.4566L31.9536 35.1738C31.9357 35.1919 31.9214 35.2133 31.9115 35.2367L31.3475 36.5717C31.337 36.5965 31.3316 36.6231 31.3316 36.65V37.8162V39.2935C31.3316 39.3736 31.3791 39.446 31.4526 39.4779L32.6814 40.0121C32.7067 40.0231 32.734 40.0288 32.7616 40.0288H34.2913C34.4069 40.0288 34.4988 40.1261 34.4921 40.2416L34.3076 43.4221C34.3066 43.4396 34.3034 43.4567 34.2979 43.4733L33.3146 46.4656L31.9341 49.2663C31.9291 49.2766 31.9249 49.2872 31.9216 49.2982L31.3316 51.2932L30.7547 53.0487C30.7535 53.0526 30.7523 53.0565 30.7513 53.0605L29.3484 52.9024L28.1586 51.4944V50.0863L29.3484 48.8794L30.3399 48.0748L27.3654 49.684L28.5552 48.0748L27.1671 48.4771V46.6668L26.5722 48.8794L25.779 50.4886L23.3994 50.6898L23.2011 48.6783L26.1756 48.8794L24.5892 48.0748L23.2011 46.6668H25.0771L26.3739 46.2645L25.5807 45.8622L24.5892 45.4599L23.796 44.6553L23.3994 44.253L24.7875 44.4541H26.1756L26.7705 44.0518L25.779 43.8507L25.0771 43.4947L23.9943 43.0461L23.2011 42.6438L23.796 42.4426L25.3824 42.2415L26.3739 41.638H25.9773L25.0771 41.4369L24.1926 41.0346L23.0028 40.4311L22.0113 39.6265H24.3909L25.1841 39.2242L25.779 38.6208L24.3909 38.7968L23.5977 38.3945L22.6062 37.8162L22.2096 36.8104L24.1926 37.615L25.1841 37.2127H25.3824L23.5977 36.6093L22.4079 35.4024L23.796 35.2012L24.5892 34.7989L22.8045 34.1955L24.1926 33.592L22.8045 33.1897L22.0113 32.7874L23.2011 32.5863L24.1926 31.9828L23.2011 31.7817L22.2096 31.1782C22.0774 31.0441 21.7734 30.7759 21.6147 30.7759C21.4561 30.7759 22.2096 30.5077 22.6062 30.3736L23.3994 29.9713L22.6062 29.7702L22.2096 29.3679L23.5977 28.5633L22.4079 28.161L21.813 27.5575L21.2181 26.9541L22.6062 26.7529L23.5977 25.9483L22.4079 25.3449L21.6147 24.9426L21.4164 24.7414L22.8045 24.3391L21.4164 23.7357L20.8215 21.9253L20.0283 23.7357L18.4419 24.3391L19.6317 24.9426L20.0283 25.3449L18.2436 25.7472L18.0453 26.3506L18.6402 26.5518L19.4334 26.7529L20.0283 27.3564L18.2436 27.7587L17.6487 28.161L18.6402 28.3621L19.4334 28.7644L17.847 29.1667L17.2521 29.569L18.4419 29.9713L19.0368 30.3736L18.0453 31.1782H17.4504L16.4589 32.184L18.2436 32.5863L17.4504 34.1955L16.6572 35.0001L18.4419 35.2012L18.0453 36.0058L17.0538 36.4081L16.0623 36.8104L18.4419 37.615L17.4504 38.6208H15.6657L16.2606 37.615L15.2691 36.4081L15.6657 35.8047L15.0708 35.4024L15.864 34.1955L14.4759 33.3909L15.6657 32.7874L14.6742 32.3851L15.6657 31.3794L14.2776 30.9771L15.4674 30.5748L14.8725 30.1725L14.0793 29.7702L13.4844 28.161L12.8895 29.1667L12.6912 29.569L12.2946 29.9713H11.6997L11.1048 30.1725L12.2946 30.7759L12.8895 31.1782L11.5014 31.3794L10.9065 31.5805L12.0963 32.184L12.6912 32.3851L12.4929 33.1897H11.6997H10.9065L12.4929 34.1955L11.5014 34.5978L10.5099 35.4024L11.6997 36.0058L10.7082 36.8104L11.6997 37.615L10.5099 38.0173L10.1133 38.8219H11.5014L11.6997 39.4254L10.3116 40.0288L11.898 40.6323L10.3116 41.4369L11.6997 42.2415L11.3031 43.2472C12.8895 49.0403 17.9131 53.8411 20.2266 55.5173C26.2417 60.0767 41.5241 65.5346 54.5326 50.8909L53 51L52 50.5L54.136 49.684L52 49.5L52.5496 48.0748L53.9377 47.6725L52.5496 47.4714V45.0576L52 46.5L51 47.6725L50 49C49.7728 48.8618 49.5373 48.5958 49.3078 48.3366C49.2035 48.2188 49.1005 48.1024 49 48C48.9132 47.9116 48.8102 47.816 48.6992 47.7129C48.4761 47.5058 48.2207 47.2687 48 47L46.5 46.5L47.5873 47.6725L48.187 49.0806L48.5 50.5L47.5 50L46.6006 49.7795L45.8074 49.684L44.4193 49.4829H43.4278L44.5 50L45.5 50.5L46.4023 51.4944L46.6006 52.0978L46.4023 52.9024L45.4108 53.3047L43.9869 53.3399C43.9999 53.2691 43.9763 53.1912 43.9052 53.1407L42.5211 52.1579C42.468 52.1202 42.4365 52.0591 42.4365 51.9939V45.3088C42.4365 45.2759 42.4284 45.2435 42.413 45.2145L41.0903 42.7227C41.0636 42.6725 41.0594 42.6132 41.0789 42.5597L42.4365 38.8219L43.1062 37.2934C43.1644 37.1605 43.067 37.0116 42.9219 37.0116H40.4563C40.3452 37.0116 40.2551 36.9215 40.2551 36.8104V33.6988C40.2551 33.632 40.222 33.5696 40.1667 33.5322L39.8607 33.3253C39.7565 33.2548 39.7418 33.107 39.8301 33.0174L40.1961 32.6462C40.2339 32.6079 40.2855 32.5863 40.3393 32.5863H40.9232C40.9998 32.5863 41.0698 32.5428 41.1037 32.4741L41.4242 31.8237C41.4379 31.7961 41.4449 31.7656 41.4449 31.7348V30.1932C41.4449 30.1794 41.4435 30.1657 41.4407 30.1522L41.2526 29.2474C41.2418 29.1957 41.2112 29.1503 41.1672 29.121L40.6605 28.7832C40.6419 28.7708 40.6213 28.7615 40.5996 28.7559L39.8834 28.5697C39.8669 28.5654 39.8499 28.5633 39.8328 28.5633H39.2913C39.2478 28.5633 39.2055 28.5774 39.1707 28.6035L38.4912 29.1131C38.4457 29.1472 38.4167 29.199 38.4115 29.2557ZM40.6783 53.4218C40.6568 53.3918 40.6433 53.3555 40.641 53.316L40.2658 46.6554C40.2598 46.5489 40.1717 46.4656 40.065 46.4656H39.6185C39.5264 46.4656 39.4461 46.5281 39.4235 46.6173L37.7307 53.2951C37.7019 53.4087 37.5823 53.4738 37.4713 53.4362L37.2553 53.3632C37.1572 53.33 37.1003 53.2278 37.1238 53.1269L38.8441 45.7594C38.8585 45.6975 38.8429 45.6324 38.8018 45.5838L37.8511 44.4587C37.7643 44.356 37.6032 44.3657 37.5293 44.478L36.0908 46.6668L33.339 49.8568C33.3229 49.8756 33.3103 49.8971 33.302 49.9203L32.547 52.0266C32.5305 52.0725 32.5313 52.1228 32.5492 52.1682L32.918 53.1036L33.0195 53.3094L37.2805 53.5059L40.6783 53.4218ZM39.8587 38.0173L39.4621 39.6265L39.6604 40.6322L40.2553 41.638L41.4451 38.2184L39.8587 38.0173Z" fill="#1CAC78"/>
<path d="M91.228 43.8121C90.076 43.8121 88.996 43.5881 87.988 43.1401C86.988 42.6841 86.112 42.0561 85.36 41.2561C84.608 40.4481 84.02 39.5201 83.596 38.4721C83.172 37.4161 82.96 36.2881 82.96 35.0881C82.96 33.8641 83.18 32.7241 83.62 31.6681C84.06 30.6121 84.664 29.6921 85.432 28.9081C86.2 28.1161 87.08 27.5001 88.072 27.0601C89.072 26.6201 90.132 26.4001 91.252 26.4001C92.54 26.4001 93.756 26.7001 94.9 27.3001C96.052 27.9001 97.028 28.7521 97.828 29.8561L96.328 30.6721C95.688 29.8321 94.916 29.1881 94.012 28.7401C93.116 28.2921 92.192 28.0681 91.24 28.0681C90.336 28.0681 89.484 28.2521 88.684 28.6201C87.892 28.9801 87.192 29.4841 86.584 30.1321C85.976 30.7801 85.5 31.5281 85.156 32.3761C84.812 33.2241 84.64 34.1361 84.64 35.1121C84.64 36.0801 84.812 36.9881 85.156 37.8361C85.5 38.6841 85.972 39.4321 86.572 40.0801C87.18 40.7201 87.884 41.2241 88.684 41.5921C89.484 41.9521 90.34 42.1321 91.252 42.1321C92.004 42.1321 92.716 42.0041 93.388 41.7481C94.068 41.4841 94.688 41.1161 95.248 40.6441C95.808 40.1721 96.28 39.6201 96.664 38.9881C97.056 38.3561 97.34 37.6681 97.516 36.9241H92.98V35.4001H99.472C99.448 36.5601 99.216 37.6481 98.776 38.6641C98.336 39.6801 97.736 40.5761 96.976 41.3521C96.224 42.1201 95.356 42.7241 94.372 43.1641C93.396 43.5961 92.348 43.8121 91.228 43.8121ZM106.978 43.8121C105.874 43.8121 104.866 43.5281 103.954 42.9601C103.05 42.3921 102.326 41.6321 101.782 40.6801C101.246 39.7201 100.978 38.6601 100.978 37.5001C100.978 36.6201 101.134 35.8001 101.446 35.0401C101.758 34.2721 102.186 33.6001 102.73 33.0241C103.282 32.4401 103.922 31.9841 104.65 31.6561C105.378 31.3281 106.154 31.1641 106.978 31.1641C108.082 31.1641 109.086 31.4481 109.99 32.0161C110.902 32.5841 111.626 33.3481 112.162 34.3081C112.706 35.2681 112.978 36.3321 112.978 37.5001C112.978 38.3721 112.822 39.1881 112.51 39.9481C112.198 40.7081 111.766 41.3801 111.214 41.9641C110.67 42.5401 110.034 42.9921 109.306 43.3201C108.586 43.6481 107.81 43.8121 106.978 43.8121ZM106.978 42.1321C107.794 42.1321 108.526 41.9201 109.174 41.4961C109.83 41.0641 110.346 40.4961 110.722 39.7921C111.106 39.0881 111.298 38.3241 111.298 37.5001C111.298 36.6601 111.106 35.8881 110.722 35.1841C110.338 34.4721 109.818 33.9041 109.162 33.4801C108.514 33.0561 107.786 32.8441 106.978 32.8441C106.162 32.8441 105.426 33.0601 104.77 33.4921C104.122 33.9161 103.606 34.4801 103.222 35.1841C102.846 35.8881 102.658 36.6601 102.658 37.5001C102.658 38.3641 102.854 39.1481 103.246 39.8521C103.638 40.5481 104.162 41.1041 104.818 41.5201C105.474 41.9281 106.194 42.1321 106.978 42.1321ZM123.461 40.4881L124.961 41.3041C124.417 42.0641 123.725 42.6721 122.885 43.1281C122.053 43.5841 121.149 43.8121 120.173 43.8121C119.069 43.8121 118.061 43.5281 117.149 42.9601C116.245 42.3921 115.521 41.6321 114.977 40.6801C114.441 39.7201 114.173 38.6601 114.173 37.5001C114.173 36.6201 114.329 35.8001 114.641 35.0401C114.953 34.2721 115.381 33.6001 115.925 33.0241C116.477 32.4401 117.117 31.9841 117.845 31.6561C118.573 31.3281 119.349 31.1641 120.173 31.1641C121.149 31.1641 122.053 31.3921 122.885 31.8481C123.725 32.3041 124.417 32.9161 124.961 33.6841L123.461 34.4881C123.045 33.9601 122.545 33.5561 121.961 33.2761C121.377 32.9881 120.781 32.8441 120.173 32.8441C119.365 32.8441 118.633 33.0601 117.977 33.4921C117.321 33.9161 116.801 34.4801 116.417 35.1841C116.041 35.8881 115.853 36.6601 115.853 37.5001C115.853 38.3401 116.045 39.1121 116.429 39.8161C116.821 40.5201 117.345 41.0841 118.001 41.5081C118.657 41.9241 119.381 42.1321 120.173 42.1321C120.829 42.1321 121.445 41.9801 122.021 41.6761C122.597 41.3721 123.077 40.9761 123.461 40.4881ZM132.243 43.8121C131.139 43.8121 130.131 43.5281 129.219 42.9601C128.315 42.3921 127.591 41.6321 127.047 40.6801C126.511 39.7201 126.243 38.6601 126.243 37.5001C126.243 36.6201 126.399 35.8001 126.711 35.0401C127.023 34.2721 127.451 33.6001 127.995 33.0241C128.547 32.4401 129.187 31.9841 129.915 31.6561C130.643 31.3281 131.419 31.1641 132.243 31.1641C133.131 31.1641 133.947 31.3401 134.691 31.6921C135.443 32.0441 136.087 32.5361 136.623 33.1681C137.167 33.8001 137.575 34.5401 137.847 35.3881C138.127 36.2361 138.243 37.1521 138.195 38.1361H128.019C128.115 38.8961 128.355 39.5761 128.739 40.1761C129.131 40.7761 129.627 41.2521 130.227 41.6041C130.835 41.9481 131.507 42.1241 132.243 42.1321C133.043 42.1321 133.763 41.9241 134.403 41.5081C135.051 41.0921 135.571 40.5201 135.963 39.7921L137.667 40.1881C137.187 41.2521 136.463 42.1241 135.495 42.8041C134.527 43.4761 133.443 43.8121 132.243 43.8121ZM127.971 36.7801H136.503C136.447 36.0361 136.219 35.3561 135.819 34.7401C135.427 34.1161 134.919 33.6201 134.295 33.2521C133.671 32.8761 132.987 32.6881 132.243 32.6881C131.499 32.6881 130.819 32.8721 130.203 33.2401C129.587 33.6001 129.083 34.0921 128.691 34.7161C128.299 35.3321 128.059 36.0201 127.971 36.7801ZM150.717 36.0721V43.5001H149.037V36.4081C149.037 35.7521 148.877 35.1561 148.557 34.6201C148.237 34.0841 147.809 33.6561 147.273 33.3361C146.737 33.0161 146.141 32.8561 145.485 32.8561C144.837 32.8561 144.241 33.0161 143.697 33.3361C143.161 33.6561 142.733 34.0841 142.413 34.6201C142.093 35.1561 141.933 35.7521 141.933 36.4081V43.5001H140.253V31.5001H141.933V33.1561C142.357 32.5481 142.909 32.0641 143.589 31.7041C144.269 31.3441 145.009 31.1641 145.809 31.1641C146.713 31.1641 147.537 31.3841 148.281 31.8241C149.025 32.2641 149.617 32.8561 150.057 33.6001C150.497 34.3441 150.717 35.1681 150.717 36.0721ZM159.252 33.1801H156.384L156.372 43.5001H154.692L154.704 33.1801H152.532V31.5001H154.704L154.692 27.7321H156.372L156.384 31.5001H159.252V33.1801ZM161.393 43.5001V31.5001H163.073V33.1561C163.497 32.5481 164.049 32.0641 164.729 31.7041C165.409 31.3441 166.149 31.1641 166.949 31.1641C167.413 31.1641 167.861 31.2241 168.293 31.3441L167.609 33.0121C167.273 32.9081 166.945 32.8561 166.625 32.8561C165.977 32.8561 165.381 33.0161 164.837 33.3361C164.301 33.6561 163.873 34.0841 163.553 34.6201C163.233 35.1561 163.073 35.7521 163.073 36.4081V43.5001H161.393ZM179.038 31.5001H180.718V43.5001H179.038L178.978 41.2681C178.586 42.0281 178.038 42.6441 177.334 43.1161C176.63 43.5801 175.79 43.8121 174.814 43.8121C173.934 43.8121 173.11 43.6481 172.342 43.3201C171.574 42.9841 170.898 42.5241 170.314 41.9401C169.73 41.3561 169.274 40.6801 168.946 39.9121C168.618 39.1441 168.454 38.3201 168.454 37.4401C168.454 36.5761 168.614 35.7641 168.934 35.0041C169.262 34.2441 169.71 33.5761 170.278 33.0001C170.854 32.4241 171.518 31.9761 172.27 31.6561C173.03 31.3281 173.842 31.1641 174.706 31.1641C175.706 31.1641 176.578 31.4041 177.322 31.8841C178.066 32.3561 178.658 32.9761 179.098 33.7441L179.038 31.5001ZM174.778 42.1801C175.634 42.1801 176.37 41.9721 176.986 41.5561C177.602 41.1321 178.074 40.5641 178.402 39.8521C178.738 39.1401 178.906 38.3561 178.906 37.5001C178.906 36.6201 178.738 35.8281 178.402 35.1241C178.066 34.4121 177.59 33.8481 176.974 33.4321C176.358 33.0161 175.626 32.8081 174.778 32.8081C173.93 32.8081 173.154 33.0201 172.45 33.4441C171.754 33.8601 171.198 34.4241 170.782 35.1361C170.374 35.8481 170.17 36.6361 170.17 37.5001C170.17 38.3721 170.382 39.1641 170.806 39.8761C171.23 40.5801 171.79 41.1401 172.486 41.5561C173.19 41.9721 173.954 42.1801 174.778 42.1801ZM183.284 43.5001V25.5001H184.964V43.5001H183.284ZM197.624 31.5001H199.304V43.5001H197.624L197.564 41.2681C197.172 42.0281 196.624 42.6441 195.92 43.1161C195.216 43.5801 194.376 43.8121 193.4 43.8121C192.52 43.8121 191.696 43.6481 190.928 43.3201C190.16 42.9841 189.484 42.5241 188.9 41.9401C188.316 41.3561 187.86 40.6801 187.532 39.9121C187.204 39.1441 187.04 38.3201 187.04 37.4401C187.04 36.5761 187.2 35.7641 187.52 35.0041C187.848 34.2441 188.296 33.5761 188.864 33.0001C189.44 32.4241 190.104 31.9761 190.856 31.6561C191.616 31.3281 192.428 31.1641 193.292 31.1641C194.292 31.1641 195.164 31.4041 195.908 31.8841C196.652 32.3561 197.244 32.9761 197.684 33.7441L197.624 31.5001ZM193.364 42.1801C194.22 42.1801 194.956 41.9721 195.572 41.5561C196.188 41.1321 196.66 40.5641 196.988 39.8521C197.324 39.1401 197.492 38.3561 197.492 37.5001C197.492 36.6201 197.324 35.8281 196.988 35.1241C196.652 34.4121 196.176 33.8481 195.56 33.4321C194.944 33.0161 194.212 32.8081 193.364 32.8081C192.516 32.8081 191.74 33.0201 191.036 33.4441C190.34 33.8601 189.784 34.4241 189.368 35.1361C188.96 35.8481 188.756 36.6361 188.756 37.5001C188.756 38.3721 188.968 39.1641 189.392 39.8761C189.816 40.5801 190.376 41.1401 191.072 41.5561C191.776 41.9721 192.54 42.1801 193.364 42.1801ZM205.414 43.7281C204.758 43.7121 204.118 43.5921 203.494 43.3681C202.87 43.1441 202.326 42.8401 201.862 42.4561C201.398 42.0721 201.066 41.6361 200.866 41.1481L202.318 40.5241C202.446 40.8361 202.682 41.1241 203.026 41.3881C203.378 41.6441 203.778 41.8521 204.226 42.0121C204.674 42.1641 205.118 42.2401 205.558 42.2401C206.046 42.2401 206.502 42.1601 206.926 42.0001C207.35 41.8401 207.694 41.6121 207.958 41.3161C208.23 41.0121 208.366 40.6561 208.366 40.2481C208.366 39.8081 208.222 39.4641 207.934 39.2161C207.646 38.9601 207.282 38.7601 206.842 38.6161C206.402 38.4641 205.95 38.3201 205.486 38.1841C204.638 37.9521 203.89 37.6961 203.242 37.4161C202.594 37.1361 202.086 36.7801 201.718 36.3481C201.358 35.9081 201.178 35.3441 201.178 34.6561C201.178 33.9281 201.382 33.3001 201.79 32.7721C202.206 32.2361 202.746 31.8241 203.41 31.5361C204.082 31.2401 204.798 31.0921 205.558 31.0921C206.534 31.0921 207.422 31.3041 208.222 31.7281C209.03 32.1521 209.614 32.7161 209.974 33.4201L208.618 34.2241C208.474 33.8961 208.246 33.6121 207.934 33.3721C207.622 33.1321 207.266 32.9441 206.866 32.8081C206.474 32.6721 206.074 32.6001 205.666 32.5921C205.154 32.5841 204.678 32.6601 204.238 32.8201C203.798 32.9721 203.442 33.2001 203.17 33.5041C202.906 33.8081 202.774 34.1801 202.774 34.6201C202.774 35.0601 202.906 35.3961 203.17 35.6281C203.434 35.8521 203.79 36.0361 204.238 36.1801C204.694 36.3161 205.206 36.4761 205.774 36.6601C206.502 36.8921 207.186 37.1561 207.826 37.4521C208.466 37.7481 208.982 38.1161 209.374 38.5561C209.766 38.9961 209.958 39.5521 209.95 40.2241C209.95 40.9441 209.734 41.5721 209.302 42.1081C208.87 42.6441 208.31 43.0561 207.622 43.3441C206.934 43.6241 206.198 43.7521 205.414 43.7281ZM211.901 31.5001H213.581V43.5001H211.901V31.5001ZM212.753 29.4001C212.481 29.4001 212.249 29.3121 212.057 29.1361C211.873 28.9521 211.781 28.7241 211.781 28.4521C211.781 28.1801 211.873 27.9561 212.057 27.7801C212.249 27.5961 212.481 27.5041 212.753 27.5041C213.017 27.5041 213.241 27.5961 213.425 27.7801C213.617 27.9561 213.713 28.1801 213.713 28.4521C213.713 28.7241 213.621 28.9521 213.437 29.1361C213.253 29.3121 213.025 29.4001 212.753 29.4001ZM226.218 31.5001H227.898V43.5001H226.218L226.158 41.2681C225.766 42.0281 225.218 42.6441 224.514 43.1161C223.81 43.5801 222.97 43.8121 221.994 43.8121C221.114 43.8121 220.29 43.6481 219.522 43.3201C218.754 42.9841 218.078 42.5241 217.494 41.9401C216.91 41.3561 216.454 40.6801 216.126 39.9121C215.798 39.1441 215.634 38.3201 215.634 37.4401C215.634 36.5761 215.794 35.7641 216.114 35.0041C216.442 34.2441 216.89 33.5761 217.458 33.0001C218.034 32.4241 218.698 31.9761 219.45 31.6561C220.21 31.3281 221.022 31.1641 221.886 31.1641C222.886 31.1641 223.758 31.4041 224.502 31.8841C225.246 32.3561 225.838 32.9761 226.278 33.7441L226.218 31.5001ZM221.958 42.1801C222.814 42.1801 223.55 41.9721 224.166 41.5561C224.782 41.1321 225.254 40.5641 225.582 39.8521C225.918 39.1401 226.086 38.3561 226.086 37.5001C226.086 36.6201 225.918 35.8281 225.582 35.1241C225.246 34.4121 224.77 33.8481 224.154 33.4321C223.538 33.0161 222.806 32.8081 221.958 32.8081C221.11 32.8081 220.334 33.0201 219.63 33.4441C218.934 33.8601 218.378 34.4241 217.962 35.1361C217.554 35.8481 217.35 36.6361 217.35 37.5001C217.35 38.3721 217.562 39.1641 217.986 39.8761C218.41 40.5801 218.97 41.1401 219.666 41.5561C220.37 41.9721 221.134 42.1801 221.958 42.1801Z" fill="#1CAC78"/>
</svg>
